<svg width="88" height="83" viewBox="0 0 88 83" fill="none" xmlns="http://www.w3.org/2000/svg">
<path d="M6.23454 32.4655C9.67779 32.4655 12.4691 29.6742 12.4691 26.2309C12.4691 22.7877 9.67779 19.9964 6.23454 19.9964C2.7913 19.9964 0 22.7877 0 26.2309C0 29.6742 2.7913 32.4655 6.23454 32.4655Z" fill="url(#paint0_linear_798_1051)"/>
<path d="M37.4236 19.6118C37.4236 20.8465 37.0575 22.0535 36.3715 23.0801C35.6856 24.1067 34.7106 24.9068 33.5699 25.3793C32.4292 25.8518 31.174 25.9755 29.963 25.7346C28.752 25.4937 27.6397 24.8991 26.7666 24.0261C25.8935 23.153 25.299 22.0407 25.0581 20.8297C24.8172 19.6187 24.9409 18.3635 25.4134 17.2228C25.8859 16.0821 26.686 15.1071 27.7126 14.4212C28.7392 13.7352 29.9462 13.3691 31.1809 13.3691C32.8366 13.3691 34.4245 14.0268 35.5952 15.1975C36.7659 16.3683 37.4236 17.9561 37.4236 19.6118Z" fill="url(#paint1_linear_798_1051)"/>
<path d="M56.1436 19.1618C59.5869 19.1618 62.3782 16.3705 62.3782 12.9273C62.3782 9.48402 59.5869 6.69272 56.1436 6.69272C52.7004 6.69272 49.9091 9.48402 49.9091 12.9273C49.9091 16.3705 52.7004 19.1618 56.1436 19.1618Z" fill="url(#paint2_linear_798_1051)"/>
<path d="M81.0982 12.4691C84.5414 12.4691 87.3327 9.67779 87.3327 6.23454C87.3327 2.7913 84.5414 0 81.0982 0C77.6549 0 74.8636 2.7913 74.8636 6.23454C74.8636 9.67779 77.6549 12.4691 81.0982 12.4691Z" fill="url(#paint3_linear_798_1051)"/>
<path d="M6.23454 57.42C9.67779 57.42 12.4691 54.6287 12.4691 51.1855C12.4691 47.7422 9.67779 44.9509 6.23454 44.9509C2.7913 44.9509 0 47.7422 0 51.1855C0 54.6287 2.7913 57.42 6.23454 57.42Z" fill="url(#paint4_linear_798_1051)"/>
<path d="M37.4236 44.5663C37.4253 45.8014 37.0605 47.0091 36.3755 48.0368C35.6906 49.0645 34.7161 49.866 33.5755 50.3397C32.435 50.8135 31.1795 50.9383 29.968 50.6983C28.7565 50.4584 27.6434 49.8644 26.7695 48.9917C25.8956 48.119 25.3003 47.0066 25.0587 45.7954C24.8172 44.5842 24.9403 43.3286 25.4126 42.1874C25.8848 41.0462 26.685 40.0708 27.7118 39.3844C28.7386 38.6981 29.9459 38.3318 31.1809 38.3318C32.0003 38.3307 32.8119 38.4912 33.5692 38.804C34.3266 39.1169 35.0149 39.5759 35.5947 40.1549C36.1745 40.734 36.6345 41.4217 36.9483 42.1786C37.2622 42.9356 37.4236 43.7469 37.4236 44.5663Z" fill="url(#paint5_linear_798_1051)"/>
<path d="M56.1436 44.1164C59.5869 44.1164 62.3782 41.3251 62.3782 37.8818C62.3782 34.4386 59.5869 31.6473 56.1436 31.6473C52.7004 31.6473 49.9091 34.4386 49.9091 37.8818C49.9091 41.3251 52.7004 44.1164 56.1436 44.1164Z" fill="url(#paint6_linear_798_1051)"/>
<path d="M81.0982 37.4236C84.5414 37.4236 87.3327 34.6323 87.3327 31.1891C87.3327 27.7458 84.5414 24.9545 81.0982 24.9545C77.6549 24.9545 74.8636 27.7458 74.8636 31.1891C74.8636 34.6323 77.6549 37.4236 81.0982 37.4236Z" fill="url(#paint7_linear_798_1051)"/>
<path d="M6.23454 82.3745C9.67779 82.3745 12.4691 79.5832 12.4691 76.14C12.4691 72.6968 9.67779 69.9055 6.23454 69.9055C2.7913 69.9055 0 72.6968 0 76.14C0 79.5832 2.7913 82.3745 6.23454 82.3745Z" fill="url(#paint8_linear_798_1051)"/>
<path d="M37.4236 69.5209C37.4236 70.7556 37.0575 71.9626 36.3715 72.9892C35.6856 74.0158 34.7106 74.8159 33.5699 75.2884C32.4292 75.7609 31.174 75.8846 29.963 75.6437C28.752 75.4028 27.6397 74.8082 26.7666 73.9352C25.8935 73.0621 25.299 71.9498 25.0581 70.7388C24.8172 69.5278 24.9409 68.2726 25.4134 67.1319C25.8859 65.9912 26.686 65.0162 27.7126 64.3303C28.7392 63.6443 29.9462 63.2782 31.1809 63.2782C32.001 63.2771 32.8132 63.4378 33.5711 63.7512C34.329 64.0645 35.0177 64.5243 35.5976 65.1042C36.1775 65.6841 36.6373 66.3727 36.9506 67.1306C37.264 67.8885 37.4247 68.7008 37.4236 69.5209Z" fill="url(#paint9_linear_798_1051)"/>
<path d="M56.1436 69.0709C59.5869 69.0709 62.3782 66.2796 62.3782 62.8364C62.3782 59.3931 59.5869 56.6018 56.1436 56.6018C52.7004 56.6018 49.9091 59.3931 49.9091 62.8364C49.9091 66.2796 52.7004 69.0709 56.1436 69.0709Z" fill="url(#paint10_linear_798_1051)"/>
<path d="M81.0982 62.3782C84.5414 62.3782 87.3327 59.5869 87.3327 56.1436C87.3327 52.7004 84.5414 49.9091 81.0982 49.9091C77.6549 49.9091 74.8636 52.7004 74.8636 56.1436C74.8636 59.5869 77.6549 62.3782 81.0982 62.3782Z" fill="url(#paint11_linear_798_1051)"/>
<defs>
<linearGradient id="paint0_linear_798_1051" x1="67.5341" y1="5.54154" x2="40.7312" y2="90.8797" gradientUnits="userSpaceOnUse">
<stop stop-color="white"/>
<stop offset="1" stop-color="#5502DA"/>
</linearGradient>
<linearGradient id="paint1_linear_798_1051" x1="67.5341" y1="5.54154" x2="40.7312" y2="90.8797" gradientUnits="userSpaceOnUse">
<stop stop-color="white"/>
<stop offset="1" stop-color="#5502DA"/>
</linearGradient>
<linearGradient id="paint2_linear_798_1051" x1="67.5341" y1="5.54154" x2="40.7312" y2="90.8797" gradientUnits="userSpaceOnUse">
<stop stop-color="white"/>
<stop offset="1" stop-color="#5502DA"/>
</linearGradient>
<linearGradient id="paint3_linear_798_1051" x1="67.5341" y1="5.54154" x2="40.7312" y2="90.8797" gradientUnits="userSpaceOnUse">
<stop stop-color="white"/>
<stop offset="1" stop-color="#5502DA"/>
</linearGradient>
<linearGradient id="paint4_linear_798_1051" x1="67.5341" y1="5.54154" x2="40.7312" y2="90.8797" gradientUnits="userSpaceOnUse">
<stop stop-color="white"/>
<stop offset="1" stop-color="#5502DA"/>
</linearGradient>
<linearGradient id="paint5_linear_798_1051" x1="67.5341" y1="5.54154" x2="40.7312" y2="90.8797" gradientUnits="userSpaceOnUse">
<stop stop-color="white"/>
<stop offset="1" stop-color="#5502DA"/>
</linearGradient>
<linearGradient id="paint6_linear_798_1051" x1="67.5341" y1="5.54154" x2="40.7312" y2="90.8797" gradientUnits="userSpaceOnUse">
<stop stop-color="white"/>
<stop offset="1" stop-color="#5502DA"/>
</linearGradient>
<linearGradient id="paint7_linear_798_1051" x1="67.5341" y1="5.54154" x2="40.7312" y2="90.8797" gradientUnits="userSpaceOnUse">
<stop stop-color="white"/>
<stop offset="1" stop-color="#5502DA"/>
</linearGradient>
<linearGradient id="paint8_linear_798_1051" x1="67.5341" y1="5.54154" x2="40.7312" y2="90.8797" gradientUnits="userSpaceOnUse">
<stop stop-color="white"/>
<stop offset="1" stop-color="#5502DA"/>
</linearGradient>
<linearGradient id="paint9_linear_798_1051" x1="67.5341" y1="5.54154" x2="40.7312" y2="90.8797" gradientUnits="userSpaceOnUse">
<stop stop-color="white"/>
<stop offset="1" stop-color="#5502DA"/>
</linearGradient>
<linearGradient id="paint10_linear_798_1051" x1="67.5341" y1="5.54154" x2="40.7312" y2="90.8797" gradientUnits="userSpaceOnUse">
<stop stop-color="white"/>
<stop offset="1" stop-color="#5502DA"/>
</linearGradient>
<linearGradient id="paint11_linear_798_1051" x1="67.5341" y1="5.54154" x2="40.7312" y2="90.8797" gradientUnits="userSpaceOnUse">
<stop stop-color="white"/>
<stop offset="1" stop-color="#5502DA"/>
</linearGradient>
</defs>
</svg>
