<svg width="144" height="105" viewBox="0 0 144 105" fill="none" xmlns="http://www.w3.org/2000/svg">
<path d="M3.78712 44.1137C5.87869 44.1137 7.57423 42.4187 7.57423 40.3279C7.57423 38.237 5.87869 36.542 3.78712 36.542C1.69555 36.542 0 38.237 0 40.3279C0 42.4187 1.69555 44.1137 3.78712 44.1137Z" fill="url(#paint0_linear_798_1058)"/>
<path d="M18.9455 40.0496C21.0371 40.0496 22.7327 38.3547 22.7327 36.2638C22.7327 34.1729 21.0371 32.4779 18.9455 32.4779C16.854 32.4779 15.1584 34.1729 15.1584 36.2638C15.1584 38.3547 16.854 40.0496 18.9455 40.0496Z" fill="url(#paint1_linear_798_1058)"/>
<path d="M34.104 35.9905C36.1955 35.9905 37.8911 34.2955 37.8911 32.2047C37.8911 30.1138 36.1955 28.4188 34.104 28.4188C32.0124 28.4188 30.3168 30.1138 30.3168 32.2047C30.3168 34.2955 32.0124 35.9905 34.104 35.9905Z" fill="url(#paint2_linear_798_1058)"/>
<path d="M49.2624 31.9314C51.3539 31.9314 53.0495 30.2364 53.0495 28.1455C53.0495 26.0547 51.3539 24.3597 49.2624 24.3597C47.1708 24.3597 45.4753 26.0547 45.4753 28.1455C45.4753 30.2364 47.1708 31.9314 49.2624 31.9314Z" fill="url(#paint3_linear_798_1058)"/>
<path d="M68.2079 24.0864C68.2079 24.8362 67.9855 25.5691 67.5688 26.1925C67.1521 26.8159 66.5599 27.3018 65.867 27.5887C65.1741 27.8756 64.4116 27.9507 63.676 27.8044C62.9404 27.6581 62.2647 27.2971 61.7344 26.7669C61.2041 26.2368 60.8429 25.5613 60.6966 24.826C60.5503 24.0906 60.6254 23.3284 60.9124 22.6357C61.1994 21.9431 61.6854 21.351 62.309 20.9345C62.9326 20.5179 63.6658 20.2956 64.4158 20.2956C64.914 20.295 65.4074 20.3925 65.8677 20.5828C66.3281 20.7731 66.7464 21.0523 67.0987 21.4045C67.451 21.7566 67.7302 22.1747 67.9206 22.635C68.1109 23.0952 68.2086 23.5884 68.2079 24.0864Z" fill="url(#paint4_linear_798_1058)"/>
<path d="M79.5792 23.8132C81.6708 23.8132 83.3663 22.1182 83.3663 20.0273C83.3663 17.9364 81.6708 16.2414 79.5792 16.2414C77.4876 16.2414 75.7921 17.9364 75.7921 20.0273C75.7921 22.1182 77.4876 23.8132 79.5792 23.8132Z" fill="url(#paint5_linear_798_1058)"/>
<path d="M94.7376 19.7093C96.8292 19.7093 98.5247 18.0143 98.5247 15.9235C98.5247 13.8326 96.8292 12.1376 94.7376 12.1376C92.6461 12.1376 90.9505 13.8326 90.9505 15.9235C90.9505 18.0143 92.6461 19.7093 94.7376 19.7093Z" fill="url(#paint6_linear_798_1058)"/>
<path d="M109.896 15.69C111.988 15.69 113.683 13.995 113.683 11.9041C113.683 9.81323 111.988 8.11824 109.896 8.11824C107.804 8.11824 106.109 9.81323 106.109 11.9041C106.109 13.995 107.804 15.69 109.896 15.69Z" fill="url(#paint7_linear_798_1058)"/>
<path d="M125.054 11.6308C127.146 11.6308 128.842 9.93585 128.842 7.84498C128.842 5.75411 127.146 4.05912 125.054 4.05912C122.963 4.05912 121.267 5.75411 121.267 7.84498C121.267 9.93585 122.963 11.6308 125.054 11.6308Z" fill="url(#paint8_linear_798_1058)"/>
<path d="M140.213 7.57172C142.304 7.57172 144 5.87674 144 3.78586C144 1.69499 142.304 0 140.213 0C138.121 0 136.426 1.69499 136.426 3.78586C136.426 5.87674 138.121 7.57172 140.213 7.57172Z" fill="url(#paint9_linear_798_1058)"/>
<path d="M3.78712 59.2671C5.87869 59.2671 7.57423 57.5721 7.57423 55.4813C7.57423 53.3904 5.87869 51.6954 3.78712 51.6954C1.69555 51.6954 0 53.3904 0 55.4813C0 57.5721 1.69555 59.2671 3.78712 59.2671Z" fill="url(#paint10_linear_798_1058)"/>
<path d="M18.9455 55.203C21.0371 55.203 22.7327 53.508 22.7327 51.4172C22.7327 49.3263 21.0371 47.6313 18.9455 47.6313C16.854 47.6313 15.1584 49.3263 15.1584 51.4172C15.1584 53.508 16.854 55.203 18.9455 55.203Z" fill="url(#paint11_linear_798_1058)"/>
<path d="M34.104 51.1439C36.1955 51.1439 37.8911 49.4489 37.8911 47.3581C37.8911 45.2672 36.1955 43.5722 34.104 43.5722C32.0124 43.5722 30.3168 45.2672 30.3168 47.3581C30.3168 49.4489 32.0124 51.1439 34.104 51.1439Z" fill="url(#paint12_linear_798_1058)"/>
<path d="M49.2624 47.0848C51.3539 47.0848 53.0495 45.3898 53.0495 43.2989C53.0495 41.2081 51.3539 39.5131 49.2624 39.5131C47.1708 39.5131 45.4753 41.2081 45.4753 43.2989C45.4753 45.3898 47.1708 47.0848 49.2624 47.0848Z" fill="url(#paint13_linear_798_1058)"/>
<path d="M68.2079 39.2398C68.2079 39.9896 67.9855 40.7225 67.5688 41.3459C67.1521 41.9693 66.5599 42.4552 65.867 42.7421C65.1741 43.029 64.4116 43.1041 63.676 42.9578C62.9404 42.8115 62.2647 42.4505 61.7344 41.9203C61.2041 41.3902 60.8429 40.7147 60.6966 39.9794C60.5503 39.244 60.6254 38.4818 60.9124 37.7891C61.1994 37.0964 61.6854 36.5044 62.309 36.0879C62.9326 35.6713 63.6658 35.449 64.4158 35.449C64.914 35.4483 65.4074 35.5459 65.8677 35.7362C66.3281 35.9265 66.7464 36.2057 67.0987 36.5578C67.451 36.91 67.7302 37.3281 67.9206 37.7884C68.1109 38.2486 68.2086 38.7418 68.2079 39.2398Z" fill="url(#paint14_linear_798_1058)"/>
<path d="M79.5792 38.9665C81.6708 38.9665 83.3663 37.2716 83.3663 35.1807C83.3663 33.0898 81.6708 31.3948 79.5792 31.3948C77.4876 31.3948 75.7921 33.0898 75.7921 35.1807C75.7921 37.2716 77.4876 38.9665 79.5792 38.9665Z" fill="url(#paint15_linear_798_1058)"/>
<path d="M98.5247 31.0769C98.5257 31.8268 98.3041 32.5602 97.8881 33.1843C97.472 33.8083 96.8801 34.295 96.1873 34.5827C95.4944 34.8703 94.7318 34.9461 93.9959 34.8004C93.26 34.6547 92.5838 34.2941 92.0529 33.7641C91.5221 33.2342 91.1605 32.5587 91.0138 31.8232C90.8671 31.0877 90.9418 30.3253 91.2287 29.6323C91.5156 28.9393 92.0016 28.347 92.6253 27.9302C93.249 27.5135 93.9825 27.291 94.7327 27.291C95.7375 27.291 96.7013 27.6897 97.4123 28.3995C98.1233 29.1094 98.5234 30.0723 98.5247 31.0769Z" fill="url(#paint16_linear_798_1058)"/>
<path d="M109.896 30.8433C111.988 30.8433 113.683 29.1484 113.683 27.0575C113.683 24.9666 111.988 23.2716 109.896 23.2716C107.804 23.2716 106.109 24.9666 106.109 27.0575C106.109 29.1484 107.804 30.8433 109.896 30.8433Z" fill="url(#paint17_linear_798_1058)"/>
<path d="M125.054 26.7842C127.146 26.7842 128.842 25.0892 128.842 22.9984C128.842 20.9075 127.146 19.2125 125.054 19.2125C122.963 19.2125 121.267 20.9075 121.267 22.9984C121.267 25.0892 122.963 26.7842 125.054 26.7842Z" fill="url(#paint18_linear_798_1058)"/>
<path d="M140.213 22.7251C142.304 22.7251 144 21.0301 144 18.9392C144 16.8484 142.304 15.1534 140.213 15.1534C138.121 15.1534 136.426 16.8484 136.426 18.9392C136.426 21.0301 138.121 22.7251 140.213 22.7251Z" fill="url(#paint19_linear_798_1058)"/>
<path d="M3.78712 74.4205C5.87869 74.4205 7.57423 72.7255 7.57423 70.6346C7.57423 68.5438 5.87869 66.8488 3.78712 66.8488C1.69555 66.8488 0 68.5438 0 70.6346C0 72.7255 1.69555 74.4205 3.78712 74.4205Z" fill="url(#paint20_linear_798_1058)"/>
<path d="M18.9455 70.3564C21.0371 70.3564 22.7327 68.6614 22.7327 66.5706C22.7327 64.4797 21.0371 62.7847 18.9455 62.7847C16.854 62.7847 15.1584 64.4797 15.1584 66.5706C15.1584 68.6614 16.854 70.3564 18.9455 70.3564Z" fill="url(#paint21_linear_798_1058)"/>
<path d="M34.104 66.2973C36.1955 66.2973 37.8911 64.6023 37.8911 62.5114C37.8911 60.4206 36.1955 58.7256 34.104 58.7256C32.0124 58.7256 30.3168 60.4206 30.3168 62.5114C30.3168 64.6023 32.0124 66.2973 34.104 66.2973Z" fill="url(#paint22_linear_798_1058)"/>
<path d="M49.2624 62.2382C51.3539 62.2382 53.0495 60.5432 53.0495 58.4523C53.0495 56.3614 51.3539 54.6665 49.2624 54.6665C47.1708 54.6665 45.4753 56.3614 45.4753 58.4523C45.4753 60.5432 47.1708 62.2382 49.2624 62.2382Z" fill="url(#paint23_linear_798_1058)"/>
<path d="M68.2079 54.3932C68.2079 55.1429 67.9855 55.8759 67.5688 56.4993C67.1521 57.1227 66.5599 57.6085 65.867 57.8955C65.1741 58.1824 64.4116 58.2574 63.676 58.1112C62.9404 57.9649 62.2647 57.6039 61.7344 57.0737C61.2041 56.5436 60.8429 55.8681 60.6966 55.1327C60.5503 54.3974 60.6254 53.6352 60.9124 52.9425C61.1994 52.2498 61.6854 51.6578 62.309 51.2412C62.9326 50.8247 63.6658 50.6024 64.4158 50.6024C64.914 50.6017 65.4074 50.6993 65.8677 50.8896C66.3281 51.0799 66.7464 51.3591 67.0987 51.7112C67.451 52.0634 67.7302 52.4815 67.9206 52.9417C68.1109 53.402 68.2086 53.8952 68.2079 54.3932Z" fill="url(#paint24_linear_798_1058)"/>
<path d="M79.5792 54.1199C81.6708 54.1199 83.3663 52.4249 83.3663 50.3341C83.3663 48.2432 81.6708 46.5482 79.5792 46.5482C77.4876 46.5482 75.7921 48.2432 75.7921 50.3341C75.7921 52.4249 77.4876 54.1199 79.5792 54.1199Z" fill="url(#paint25_linear_798_1058)"/>
<path d="M98.5247 46.2302C98.5257 46.9802 98.3041 47.7136 97.8881 48.3377C97.472 48.9617 96.8801 49.4484 96.1873 49.736C95.4944 50.0237 94.7318 50.0995 93.9959 49.9538C93.26 49.8081 92.5838 49.4475 92.0529 48.9175C91.5221 48.3875 91.1605 47.7121 91.0138 46.9766C90.8671 46.2411 90.9418 45.4786 91.2287 44.7857C91.5156 44.0927 92.0016 43.5004 92.6253 43.0836C93.249 42.6668 93.9825 42.4444 94.7327 42.4444C95.7375 42.4444 96.7013 42.8431 97.4123 43.5529C98.1233 44.2628 98.5234 45.2257 98.5247 46.2302Z" fill="url(#paint26_linear_798_1058)"/>
<path d="M109.896 45.9967C111.988 45.9967 113.683 44.3017 113.683 42.2109C113.683 40.12 111.988 38.425 109.896 38.425C107.804 38.425 106.109 40.12 106.109 42.2109C106.109 44.3017 107.804 45.9967 109.896 45.9967Z" fill="url(#paint27_linear_798_1058)"/>
<path d="M125.054 41.9376C127.146 41.9376 128.842 40.2426 128.842 38.1517C128.842 36.0609 127.146 34.3659 125.054 34.3659C122.963 34.3659 121.267 36.0609 121.267 38.1517C121.267 40.2426 122.963 41.9376 125.054 41.9376Z" fill="url(#paint28_linear_798_1058)"/>
<path d="M140.213 37.8785C142.304 37.8785 144 36.1835 144 34.0926C144 32.0018 142.304 30.3068 140.213 30.3068C138.121 30.3068 136.426 32.0018 136.426 34.0926C136.426 36.1835 138.121 37.8785 140.213 37.8785Z" fill="url(#paint29_linear_798_1058)"/>
<path d="M3.78712 89.5739C5.87869 89.5739 7.57423 87.8789 7.57423 85.788C7.57423 83.6972 5.87869 82.0022 3.78712 82.0022C1.69555 82.0022 0 83.6972 0 85.788C0 87.8789 1.69555 89.5739 3.78712 89.5739Z" fill="url(#paint30_linear_798_1058)"/>
<path d="M18.9455 85.5098C21.0371 85.5098 22.7327 83.8148 22.7327 81.7239C22.7327 79.6331 21.0371 77.9381 18.9455 77.9381C16.854 77.9381 15.1584 79.6331 15.1584 81.7239C15.1584 83.8148 16.854 85.5098 18.9455 85.5098Z" fill="url(#paint31_linear_798_1058)"/>
<path d="M34.104 81.4507C36.1955 81.4507 37.8911 79.7557 37.8911 77.6648C37.8911 75.5739 36.1955 73.879 34.104 73.879C32.0124 73.879 30.3168 75.5739 30.3168 77.6648C30.3168 79.7557 32.0124 81.4507 34.104 81.4507Z" fill="url(#paint32_linear_798_1058)"/>
<path d="M49.2624 77.3916C51.3539 77.3916 53.0495 75.6966 53.0495 73.6057C53.0495 71.5148 51.3539 69.8198 49.2624 69.8198C47.1708 69.8198 45.4753 71.5148 45.4753 73.6057C45.4753 75.6966 47.1708 77.3916 49.2624 77.3916Z" fill="url(#paint33_linear_798_1058)"/>
<path d="M68.2079 69.5466C68.2079 70.2963 67.9855 71.0292 67.5688 71.6526C67.1521 72.276 66.5599 72.7619 65.867 73.0488C65.1741 73.3358 64.4116 73.4108 63.676 73.2646C62.9404 73.1183 62.2647 72.7573 61.7344 72.2271C61.2041 71.697 60.8429 71.0215 60.6966 70.2861C60.5503 69.5508 60.6254 68.7886 60.9124 68.0959C61.1994 67.4032 61.6854 66.8112 62.309 66.3946C62.9326 65.9781 63.6658 65.7558 64.4158 65.7558C64.914 65.7551 65.4074 65.8527 65.8677 66.043C66.3281 66.2332 66.7464 66.5125 67.0987 66.8646C67.451 67.2167 67.7302 67.6349 67.9206 68.0951C68.1109 68.5553 68.2086 69.0486 68.2079 69.5466Z" fill="url(#paint34_linear_798_1058)"/>
<path d="M79.5792 69.2733C81.6708 69.2733 83.3663 67.5783 83.3663 65.4875C83.3663 63.3966 81.6708 61.7016 79.5792 61.7016C77.4876 61.7016 75.7921 63.3966 75.7921 65.4875C75.7921 67.5783 77.4876 69.2733 79.5792 69.2733Z" fill="url(#paint35_linear_798_1058)"/>
<path d="M98.5247 61.3836C98.5257 62.1336 98.3041 62.867 97.8881 63.491C97.472 64.1151 96.8801 64.6018 96.1873 64.8894C95.4944 65.1771 94.7318 65.2529 93.9959 65.1072C93.26 64.9615 92.5838 64.6008 92.0529 64.0709C91.5221 63.5409 91.1605 62.8655 91.0138 62.13C90.8671 61.3945 90.9418 60.632 91.2287 59.939C91.5156 59.2461 92.0016 58.6537 92.6253 58.237C93.249 57.8202 93.9825 57.5978 94.7327 57.5978C95.7375 57.5978 96.7013 57.9965 97.4123 58.7063C98.1233 59.4162 98.5234 60.3791 98.5247 61.3836Z" fill="url(#paint36_linear_798_1058)"/>
<path d="M109.896 61.1501C111.988 61.1501 113.683 59.4551 113.683 57.3643C113.683 55.2734 111.988 53.5784 109.896 53.5784C107.804 53.5784 106.109 55.2734 106.109 57.3643C106.109 59.4551 107.804 61.1501 109.896 61.1501Z" fill="url(#paint37_linear_798_1058)"/>
<path d="M125.054 57.091C127.146 57.091 128.842 55.396 128.842 53.3051C128.842 51.2143 127.146 49.5193 125.054 49.5193C122.963 49.5193 121.267 51.2143 121.267 53.3051C121.267 55.396 122.963 57.091 125.054 57.091Z" fill="url(#paint38_linear_798_1058)"/>
<path d="M140.213 53.0319C142.304 53.0319 144 51.3369 144 49.246C144 47.1551 142.304 45.4602 140.213 45.4602C138.121 45.4602 136.426 47.1551 136.426 49.246C136.426 51.3369 138.121 53.0319 140.213 53.0319Z" fill="url(#paint39_linear_798_1058)"/>
<path d="M3.78712 104.727C5.87869 104.727 7.57423 103.032 7.57423 100.941C7.57423 98.8505 5.87869 97.1555 3.78712 97.1555C1.69555 97.1555 0 98.8505 0 100.941C0 103.032 1.69555 104.727 3.78712 104.727Z" fill="url(#paint40_linear_798_1058)"/>
<path d="M18.9455 100.663C21.0371 100.663 22.7327 98.9682 22.7327 96.8773C22.7327 94.7864 21.0371 93.0915 18.9455 93.0915C16.854 93.0915 15.1584 94.7864 15.1584 96.8773C15.1584 98.9682 16.854 100.663 18.9455 100.663Z" fill="url(#paint41_linear_798_1058)"/>
<path d="M34.104 96.6041C36.1955 96.6041 37.8911 94.9091 37.8911 92.8182C37.8911 90.7273 36.1955 89.0323 34.104 89.0323C32.0124 89.0323 30.3168 90.7273 30.3168 92.8182C30.3168 94.9091 32.0124 96.6041 34.104 96.6041Z" fill="url(#paint42_linear_798_1058)"/>
<path d="M49.2624 92.5449C51.3539 92.5449 53.0495 90.85 53.0495 88.7591C53.0495 86.6682 51.3539 84.9732 49.2624 84.9732C47.1708 84.9732 45.4753 86.6682 45.4753 88.7591C45.4753 90.85 47.1708 92.5449 49.2624 92.5449Z" fill="url(#paint43_linear_798_1058)"/>
<path d="M64.4208 88.4858C66.5124 88.4858 68.2079 86.7908 68.2079 84.7C68.2079 82.6091 66.5124 80.9141 64.4208 80.9141C62.3292 80.9141 60.6337 82.6091 60.6337 84.7C60.6337 86.7908 62.3292 88.4858 64.4208 88.4858Z" fill="url(#paint44_linear_798_1058)"/>
<path d="M79.5792 84.4267C81.6708 84.4267 83.3663 82.7317 83.3663 80.6408C83.3663 78.55 81.6708 76.855 79.5792 76.855C77.4876 76.855 75.7921 78.55 75.7921 80.6408C75.7921 82.7317 77.4876 84.4267 79.5792 84.4267Z" fill="url(#paint45_linear_798_1058)"/>
<path d="M94.7376 80.4521C96.8292 80.4521 98.5247 78.7571 98.5247 76.6662C98.5247 74.5753 96.8292 72.8803 94.7376 72.8803C92.6461 72.8803 90.9505 74.5753 90.9505 76.6662C90.9505 78.7571 92.6461 80.4521 94.7376 80.4521Z" fill="url(#paint46_linear_798_1058)"/>
<path d="M109.896 76.3035C111.988 76.3035 113.683 74.6085 113.683 72.5176C113.683 70.4268 111.988 68.7318 109.896 68.7318C107.804 68.7318 106.109 70.4268 106.109 72.5176C106.109 74.6085 107.804 76.3035 109.896 76.3035Z" fill="url(#paint47_linear_798_1058)"/>
<path d="M125.054 72.2444C127.146 72.2444 128.842 70.5494 128.842 68.4585C128.842 66.3676 127.146 64.6727 125.054 64.6727C122.963 64.6727 121.267 66.3676 121.267 68.4585C121.267 70.5494 122.963 72.2444 125.054 72.2444Z" fill="url(#paint48_linear_798_1058)"/>
<path d="M140.213 68.1853C142.304 68.1853 144 66.4903 144 64.3994C144 62.3085 142.304 60.6135 140.213 60.6135C138.121 60.6135 136.426 62.3085 136.426 64.3994C136.426 66.4903 138.121 68.1853 140.213 68.1853Z" fill="url(#paint49_linear_798_1058)"/>
<defs>
<linearGradient id="paint0_linear_798_1058" x1="35.6752" y1="91.2051" x2="168.484" y2="37.5631" gradientUnits="userSpaceOnUse">
<stop stop-color="white"/>
<stop offset="1" stop-color="#5502DA"/>
</linearGradient>
<linearGradient id="paint1_linear_798_1058" x1="35.6752" y1="91.2051" x2="168.484" y2="37.5631" gradientUnits="userSpaceOnUse">
<stop stop-color="white"/>
<stop offset="1" stop-color="#5502DA"/>
</linearGradient>
<linearGradient id="paint2_linear_798_1058" x1="35.6752" y1="91.2051" x2="168.484" y2="37.5631" gradientUnits="userSpaceOnUse">
<stop stop-color="white"/>
<stop offset="1" stop-color="#5502DA"/>
</linearGradient>
<linearGradient id="paint3_linear_798_1058" x1="35.6752" y1="91.2051" x2="168.484" y2="37.5631" gradientUnits="userSpaceOnUse">
<stop stop-color="white"/>
<stop offset="1" stop-color="#5502DA"/>
</linearGradient>
<linearGradient id="paint4_linear_798_1058" x1="35.6752" y1="91.2051" x2="168.484" y2="37.5631" gradientUnits="userSpaceOnUse">
<stop stop-color="white"/>
<stop offset="1" stop-color="#5502DA"/>
</linearGradient>
<linearGradient id="paint5_linear_798_1058" x1="35.6752" y1="91.2051" x2="168.484" y2="37.5631" gradientUnits="userSpaceOnUse">
<stop stop-color="white"/>
<stop offset="1" stop-color="#5502DA"/>
</linearGradient>
<linearGradient id="paint6_linear_798_1058" x1="35.6752" y1="91.2051" x2="168.484" y2="37.5631" gradientUnits="userSpaceOnUse">
<stop stop-color="white"/>
<stop offset="1" stop-color="#5502DA"/>
</linearGradient>
<linearGradient id="paint7_linear_798_1058" x1="35.6752" y1="91.2051" x2="168.484" y2="37.5631" gradientUnits="userSpaceOnUse">
<stop stop-color="white"/>
<stop offset="1" stop-color="#5502DA"/>
</linearGradient>
<linearGradient id="paint8_linear_798_1058" x1="35.6752" y1="91.2051" x2="168.484" y2="37.5631" gradientUnits="userSpaceOnUse">
<stop stop-color="white"/>
<stop offset="1" stop-color="#5502DA"/>
</linearGradient>
<linearGradient id="paint9_linear_798_1058" x1="35.6752" y1="91.2051" x2="168.484" y2="37.5631" gradientUnits="userSpaceOnUse">
<stop stop-color="white"/>
<stop offset="1" stop-color="#5502DA"/>
</linearGradient>
<linearGradient id="paint10_linear_798_1058" x1="35.6752" y1="91.2051" x2="168.484" y2="37.5631" gradientUnits="userSpaceOnUse">
<stop stop-color="white"/>
<stop offset="1" stop-color="#5502DA"/>
</linearGradient>
<linearGradient id="paint11_linear_798_1058" x1="35.6752" y1="91.2051" x2="168.484" y2="37.5631" gradientUnits="userSpaceOnUse">
<stop stop-color="white"/>
<stop offset="1" stop-color="#5502DA"/>
</linearGradient>
<linearGradient id="paint12_linear_798_1058" x1="35.6752" y1="91.2051" x2="168.484" y2="37.5631" gradientUnits="userSpaceOnUse">
<stop stop-color="white"/>
<stop offset="1" stop-color="#5502DA"/>
</linearGradient>
<linearGradient id="paint13_linear_798_1058" x1="35.6752" y1="91.2051" x2="168.484" y2="37.5631" gradientUnits="userSpaceOnUse">
<stop stop-color="white"/>
<stop offset="1" stop-color="#5502DA"/>
</linearGradient>
<linearGradient id="paint14_linear_798_1058" x1="35.6752" y1="91.2051" x2="168.484" y2="37.5631" gradientUnits="userSpaceOnUse">
<stop stop-color="white"/>
<stop offset="1" stop-color="#5502DA"/>
</linearGradient>
<linearGradient id="paint15_linear_798_1058" x1="35.6752" y1="91.2051" x2="168.484" y2="37.5631" gradientUnits="userSpaceOnUse">
<stop stop-color="white"/>
<stop offset="1" stop-color="#5502DA"/>
</linearGradient>
<linearGradient id="paint16_linear_798_1058" x1="35.6752" y1="91.2051" x2="168.484" y2="37.5631" gradientUnits="userSpaceOnUse">
<stop stop-color="white"/>
<stop offset="1" stop-color="#5502DA"/>
</linearGradient>
<linearGradient id="paint17_linear_798_1058" x1="35.6752" y1="91.2051" x2="168.484" y2="37.5631" gradientUnits="userSpaceOnUse">
<stop stop-color="white"/>
<stop offset="1" stop-color="#5502DA"/>
</linearGradient>
<linearGradient id="paint18_linear_798_1058" x1="35.6752" y1="91.2051" x2="168.484" y2="37.5631" gradientUnits="userSpaceOnUse">
<stop stop-color="white"/>
<stop offset="1" stop-color="#5502DA"/>
</linearGradient>
<linearGradient id="paint19_linear_798_1058" x1="35.6752" y1="91.2051" x2="168.484" y2="37.5631" gradientUnits="userSpaceOnUse">
<stop stop-color="white"/>
<stop offset="1" stop-color="#5502DA"/>
</linearGradient>
<linearGradient id="paint20_linear_798_1058" x1="35.6752" y1="91.2051" x2="168.484" y2="37.5631" gradientUnits="userSpaceOnUse">
<stop stop-color="white"/>
<stop offset="1" stop-color="#5502DA"/>
</linearGradient>
<linearGradient id="paint21_linear_798_1058" x1="35.6752" y1="91.2051" x2="168.484" y2="37.5631" gradientUnits="userSpaceOnUse">
<stop stop-color="white"/>
<stop offset="1" stop-color="#5502DA"/>
</linearGradient>
<linearGradient id="paint22_linear_798_1058" x1="35.6752" y1="91.2051" x2="168.484" y2="37.5631" gradientUnits="userSpaceOnUse">
<stop stop-color="white"/>
<stop offset="1" stop-color="#5502DA"/>
</linearGradient>
<linearGradient id="paint23_linear_798_1058" x1="35.6752" y1="91.2051" x2="168.484" y2="37.5631" gradientUnits="userSpaceOnUse">
<stop stop-color="white"/>
<stop offset="1" stop-color="#5502DA"/>
</linearGradient>
<linearGradient id="paint24_linear_798_1058" x1="35.6752" y1="91.2051" x2="168.484" y2="37.5631" gradientUnits="userSpaceOnUse">
<stop stop-color="white"/>
<stop offset="1" stop-color="#5502DA"/>
</linearGradient>
<linearGradient id="paint25_linear_798_1058" x1="35.6752" y1="91.2051" x2="168.484" y2="37.5631" gradientUnits="userSpaceOnUse">
<stop stop-color="white"/>
<stop offset="1" stop-color="#5502DA"/>
</linearGradient>
<linearGradient id="paint26_linear_798_1058" x1="35.6752" y1="91.2051" x2="168.484" y2="37.5631" gradientUnits="userSpaceOnUse">
<stop stop-color="white"/>
<stop offset="1" stop-color="#5502DA"/>
</linearGradient>
<linearGradient id="paint27_linear_798_1058" x1="35.6752" y1="91.2051" x2="168.484" y2="37.5631" gradientUnits="userSpaceOnUse">
<stop stop-color="white"/>
<stop offset="1" stop-color="#5502DA"/>
</linearGradient>
<linearGradient id="paint28_linear_798_1058" x1="35.6752" y1="91.2051" x2="168.484" y2="37.5631" gradientUnits="userSpaceOnUse">
<stop stop-color="white"/>
<stop offset="1" stop-color="#5502DA"/>
</linearGradient>
<linearGradient id="paint29_linear_798_1058" x1="35.6752" y1="91.2051" x2="168.484" y2="37.5631" gradientUnits="userSpaceOnUse">
<stop stop-color="white"/>
<stop offset="1" stop-color="#5502DA"/>
</linearGradient>
<linearGradient id="paint30_linear_798_1058" x1="35.6752" y1="91.2051" x2="168.484" y2="37.5631" gradientUnits="userSpaceOnUse">
<stop stop-color="white"/>
<stop offset="1" stop-color="#5502DA"/>
</linearGradient>
<linearGradient id="paint31_linear_798_1058" x1="35.6752" y1="91.2051" x2="168.484" y2="37.5631" gradientUnits="userSpaceOnUse">
<stop stop-color="white"/>
<stop offset="1" stop-color="#5502DA"/>
</linearGradient>
<linearGradient id="paint32_linear_798_1058" x1="35.6752" y1="91.2051" x2="168.484" y2="37.5631" gradientUnits="userSpaceOnUse">
<stop stop-color="white"/>
<stop offset="1" stop-color="#5502DA"/>
</linearGradient>
<linearGradient id="paint33_linear_798_1058" x1="35.6752" y1="91.2051" x2="168.484" y2="37.5631" gradientUnits="userSpaceOnUse">
<stop stop-color="white"/>
<stop offset="1" stop-color="#5502DA"/>
</linearGradient>
<linearGradient id="paint34_linear_798_1058" x1="35.6752" y1="91.2051" x2="168.484" y2="37.5631" gradientUnits="userSpaceOnUse">
<stop stop-color="white"/>
<stop offset="1" stop-color="#5502DA"/>
</linearGradient>
<linearGradient id="paint35_linear_798_1058" x1="35.6752" y1="91.2051" x2="168.484" y2="37.5631" gradientUnits="userSpaceOnUse">
<stop stop-color="white"/>
<stop offset="1" stop-color="#5502DA"/>
</linearGradient>
<linearGradient id="paint36_linear_798_1058" x1="35.6752" y1="91.2051" x2="168.484" y2="37.5631" gradientUnits="userSpaceOnUse">
<stop stop-color="white"/>
<stop offset="1" stop-color="#5502DA"/>
</linearGradient>
<linearGradient id="paint37_linear_798_1058" x1="35.6752" y1="91.2051" x2="168.484" y2="37.5631" gradientUnits="userSpaceOnUse">
<stop stop-color="white"/>
<stop offset="1" stop-color="#5502DA"/>
</linearGradient>
<linearGradient id="paint38_linear_798_1058" x1="35.6752" y1="91.2051" x2="168.484" y2="37.5631" gradientUnits="userSpaceOnUse">
<stop stop-color="white"/>
<stop offset="1" stop-color="#5502DA"/>
</linearGradient>
<linearGradient id="paint39_linear_798_1058" x1="35.6752" y1="91.2051" x2="168.484" y2="37.5631" gradientUnits="userSpaceOnUse">
<stop stop-color="white"/>
<stop offset="1" stop-color="#5502DA"/>
</linearGradient>
<linearGradient id="paint40_linear_798_1058" x1="35.6752" y1="91.2051" x2="168.484" y2="37.5631" gradientUnits="userSpaceOnUse">
<stop stop-color="white"/>
<stop offset="1" stop-color="#5502DA"/>
</linearGradient>
<linearGradient id="paint41_linear_798_1058" x1="35.6752" y1="91.2051" x2="168.484" y2="37.5631" gradientUnits="userSpaceOnUse">
<stop stop-color="white"/>
<stop offset="1" stop-color="#5502DA"/>
</linearGradient>
<linearGradient id="paint42_linear_798_1058" x1="35.6752" y1="91.2051" x2="168.484" y2="37.5631" gradientUnits="userSpaceOnUse">
<stop stop-color="white"/>
<stop offset="1" stop-color="#5502DA"/>
</linearGradient>
<linearGradient id="paint43_linear_798_1058" x1="35.6752" y1="91.2051" x2="168.484" y2="37.5631" gradientUnits="userSpaceOnUse">
<stop stop-color="white"/>
<stop offset="1" stop-color="#5502DA"/>
</linearGradient>
<linearGradient id="paint44_linear_798_1058" x1="35.6752" y1="91.2051" x2="168.484" y2="37.5631" gradientUnits="userSpaceOnUse">
<stop stop-color="white"/>
<stop offset="1" stop-color="#5502DA"/>
</linearGradient>
<linearGradient id="paint45_linear_798_1058" x1="35.6752" y1="91.2051" x2="168.484" y2="37.5631" gradientUnits="userSpaceOnUse">
<stop stop-color="white"/>
<stop offset="1" stop-color="#5502DA"/>
</linearGradient>
<linearGradient id="paint46_linear_798_1058" x1="35.6752" y1="91.2051" x2="168.484" y2="37.5631" gradientUnits="userSpaceOnUse">
<stop stop-color="white"/>
<stop offset="1" stop-color="#5502DA"/>
</linearGradient>
<linearGradient id="paint47_linear_798_1058" x1="35.6752" y1="91.2051" x2="168.484" y2="37.5631" gradientUnits="userSpaceOnUse">
<stop stop-color="white"/>
<stop offset="1" stop-color="#5502DA"/>
</linearGradient>
<linearGradient id="paint48_linear_798_1058" x1="35.6752" y1="91.2051" x2="168.484" y2="37.5631" gradientUnits="userSpaceOnUse">
<stop stop-color="white"/>
<stop offset="1" stop-color="#5502DA"/>
</linearGradient>
<linearGradient id="paint49_linear_798_1058" x1="35.6752" y1="91.2051" x2="168.484" y2="37.5631" gradientUnits="userSpaceOnUse">
<stop stop-color="white"/>
<stop offset="1" stop-color="#5502DA"/>
</linearGradient>
</defs>
</svg>
